<?xml version="1.0" encoding="UTF-8"?>
<svg version="1.1" xmlns="http://www.w3.org/2000/svg" width="400" height="400">
<path d="M0 0 C132 0 264 0 400 0 C400 132 400 264 400 400 C268 400 136 400 0 400 C0 268 0 136 0 0 Z " fill="#414140" transform="translate(0,0)"/>
<path d="M0 0 C1.2301181 -0.00014603 2.46023621 -0.00029205 3.72763062 -0.0004425 C7.07831425 0.00013213 10.42893522 0.00512514 13.77960777 0.01213145 C17.28963407 0.01841007 20.79966133 0.01897234 24.30969238 0.02015686 C30.94638619 0.02325693 37.5830634 0.03145238 44.21974993 0.04150635 C52.5221478 0.05380897 60.8245484 0.05926053 69.12695312 0.06469727 C83.9264452 0.07441863 98.72590109 0.09445388 113.52539062 0.11352539 C113.52539062 18.26352539 113.52539062 36.41352539 113.52539062 55.11352539 C104.54578125 55.13930664 95.56617188 55.16508789 86.31445312 55.19165039 C79.89301379 55.22002655 73.47162418 55.25089319 67.05021858 55.28534889 C58.73774274 55.32962074 50.42537544 55.3680704 42.11279297 55.38452148 C35.5298858 55.39756829 28.94720664 55.42460962 22.36442792 55.46813846 C18.88201076 55.49068576 15.3998741 55.50644016 11.91737747 55.50540924 C8.02036868 55.50451875 4.12392881 55.53488611 0.22705078 55.56762695 C-0.91518951 55.56259659 -2.05742981 55.55756622 -3.23428345 55.55238342 C-14.44829965 55.6976615 -22.18836899 58.93922229 -30.27929688 66.68774414 C-39.97869262 77.40540385 -41.65354537 90.91877897 -41.66210938 104.80102539 C-41.68047852 106.33919922 -41.68047852 106.33919922 -41.69921875 107.90844727 C-41.72821338 123.207947 -38.65292326 136.80615267 -27.73242188 148.05102539 C-18.92785663 156.09395004 -8.58058921 156.41030564 2.83813477 156.43237305 C4.03913818 156.44241867 5.2401416 156.45246429 6.47753906 156.46281433 C9.74343917 156.4882606 13.0092456 156.50520386 16.27521443 156.51824236 C19.69853511 156.53396104 23.12176981 156.56072299 26.54502869 156.58627319 C33.01519361 156.6329073 39.48537499 156.66972534 45.95562118 156.70294607 C54.05120285 156.74504262 62.14668743 156.80036792 70.2421875 156.85571289 C84.66986836 156.95428991 99.09757281 157.03298226 113.52539062 157.11352539 C113.52539062 175.26352539 113.52539062 193.41352539 113.52539062 212.11352539 C83.38925144 212.19385273 83.38925144 212.19385273 68.42000484 212.21403313 C60.34939637 212.22508237 52.2788296 212.23907288 44.20825195 212.2644043 C37.81475815 212.28446207 31.42129593 212.29727092 25.02777153 212.30170238 C21.6486212 212.304289 18.26956113 212.31028279 14.89043999 212.3249855 C-17.76898078 212.45131302 -17.76898078 212.45131302 -32.03710938 208.17602539 C-33.13152344 207.85762695 -34.2259375 207.53922852 -35.35351562 207.21118164 C-38.560339 206.08337517 -41.45828621 204.67482004 -44.47460938 203.11352539 C-45.23902344 202.79512695 -46.0034375 202.47672852 -46.79101562 202.14868164 C-62.30152423 195.43195705 -74.54331936 179.74475279 -81.46289062 164.69165039 C-83.32636953 159.94301689 -84.77967594 155.15703317 -85.97314453 150.19702148 C-86.31357516 148.78259356 -86.66792132 147.37145694 -87.03466797 145.96362305 C-94.06030843 118.33102362 -95.42179973 76.23448194 -82.47460938 50.11352539 C-82.17981689 49.50653809 -81.88502441 48.89955078 -81.58129883 48.27416992 C-80.6660621 46.39953084 -79.73027043 44.53675023 -78.78710938 42.67602539 C-78.30661133 41.72179687 -78.30661133 41.72179687 -77.81640625 40.74829102 C-77.03766515 39.20243182 -76.25640603 37.65784152 -75.47460938 36.11352539 C-74.81460938 36.11352539 -74.15460938 36.11352539 -73.47460938 36.11352539 C-73.13429688 35.03071289 -73.13429688 35.03071289 -72.78710938 33.92602539 C-71.18737086 30.49801428 -69.21589998 28.73562945 -66.47460938 26.11352539 C-65.19762724 24.63966379 -63.9273341 23.1599923 -62.66210938 21.67602539 C-58.14180355 16.57684801 -53.72460807 11.92602506 -46.97460938 10.23852539 C-45.73710937 10.17665039 -45.73710937 10.17665039 -44.47460938 10.11352539 C-44.47460938 9.45352539 -44.47460938 8.79352539 -44.47460938 8.11352539 C-29.79832753 2.31948226 -15.69743969 -0.04909963 0 0 Z " fill="#FD6901" transform="translate(188.474609375,93.886474609375)"/>
<path d="M0 0 C0.90573257 0.16076523 1.81146515 0.32153046 2.74464417 0.48716736 C8.17079207 1.2560142 13.61512777 1.17733438 19.08569336 1.20532227 C20.88676041 1.22017166 20.88676041 1.22017166 22.72421265 1.23532104 C25.99847475 1.26139865 29.2727322 1.28330569 32.54703593 1.30332303 C35.97568349 1.3252819 39.40428814 1.35262187 42.832901 1.37937927 C49.31730795 1.42917293 55.80173888 1.47416085 62.28619248 1.51740164 C70.3972073 1.57174762 78.50817216 1.63254503 86.61914062 1.69335938 C101.07938859 1.80175091 115.53968271 1.90041979 130 2 C130 20.15 130 38.3 130 57 C99.86386081 57.08032734 99.86386081 57.08032734 84.89461422 57.10050774 C76.82400575 57.11155698 68.75343897 57.12554749 60.68286133 57.15087891 C54.28936753 57.17093668 47.8959053 57.18374553 41.50238091 57.18817699 C38.12323057 57.19076361 34.7441705 57.1967574 31.36504936 57.21146011 C-1.2943714 57.33778763 -1.2943714 57.33778763 -15.5625 53.0625 C-17.20412109 52.58490234 -17.20412109 52.58490234 -18.87890625 52.09765625 C-22.08992297 50.96837503 -24.98545085 49.57560435 -28 48 C-28.90363281 47.56558594 -29.80726563 47.13117188 -30.73828125 46.68359375 C-32.01251953 46.06677734 -32.01251953 46.06677734 -33.3125 45.4375 C-34.60607422 44.81681641 -34.60607422 44.81681641 -35.92578125 44.18359375 C-38 43 -38 43 -39 41 C-35.03750236 41.48030274 -32.22824968 42.92620861 -28.81640625 44.9453125 C-23.71559609 47.90707324 -19.79118576 49.21769474 -13.99609375 48.98046875 C-10.71492076 49.01257416 -8.0741044 49.87073716 -5 51 C-4.67 51.66 -4.34 52.32 -4 53 C11.27922026 53.88393529 26.49831576 54.13486902 41.80078125 54.09765625 C44.10247262 54.09578517 46.4041644 54.09436454 48.70585632 54.09336853 C54.68805084 54.08959759 60.67022008 54.07981541 66.65240479 54.06866455 C73.87067391 54.05650711 81.0889516 54.05202231 88.30722809 54.04621124 C99.20483617 54.03659931 110.10238906 54.01740523 121 54 C121 38.16 121 22.32 121 6 C118.12957648 5.04319216 116.31933076 4.86904018 113.33827209 4.85523987 C111.90193672 4.84489212 111.90193672 4.84489212 110.43658447 4.83433533 C109.38767029 4.83172195 108.3387561 4.82910858 107.25805664 4.82641602 C105.59917671 4.8163855 105.59917671 4.8163855 103.90678406 4.80615234 C101.50211252 4.79209024 99.09742755 4.78019989 96.69273567 4.77020454 C92.88978818 4.75381849 89.08694051 4.7305823 85.28404236 4.70530701 C74.47041634 4.63445913 63.65675388 4.5743078 52.84301758 4.52319336 C46.23242526 4.49186339 39.6219431 4.45017538 33.01144218 4.40299797 C30.48883567 4.38695749 27.96620265 4.37464543 25.44355965 4.36609077 C21.91936657 4.35396625 18.39544507 4.32982861 14.87133789 4.30297852 C13.82444794 4.30238937 12.77755798 4.30180023 11.69894409 4.30119324 C10.73856735 4.29147491 9.77819061 4.28175659 8.78871155 4.27174377 C7.95561997 4.26751184 7.1225284 4.2632799 6.26419163 4.25891972 C3.78771443 3.97572426 2.14494702 3.23978974 0 2 C0 1.34 0 0.68 0 0 Z " fill="#F6840E" transform="translate(172,249)"/>
<path d="M0 0 C-0.61679416 8.3267211 -2.83022762 17.01169152 -9 23 C-14.47864106 26.97201477 -20.51327409 26.70884171 -27 26 C-33.41297526 24.52235593 -38.68108391 21.08178821 -44.0625 17.4375 C-44.63540771 17.04957275 -45.20831543 16.66164551 -45.79858398 16.26196289 C-48.61902858 14.26530517 -49.88005403 13.35983791 -51 10 C-50.35788574 9.87471924 -49.71577148 9.74943848 -49.05419922 9.62036133 C-36.28975912 7.12119684 -23.56124467 4.54190161 -10.90771484 1.5246582 C-9.62888428 1.22434692 -9.62888428 1.22434692 -8.32421875 0.91796875 C-7.58260498 0.74031982 -6.84099121 0.5626709 -6.0769043 0.37963867 C-4 0 -4 0 0 0 Z " fill="#F8F8F8" transform="translate(293,189)"/>
<path d="M0 0 C6.65127044 0.55797037 13.11833667 1.47867929 19.65625 2.8125 C20.52519897 2.98628174 21.39414795 3.16006348 22.28942871 3.33911133 C24.1048743 3.7032633 25.919855 4.06974018 27.734375 4.43847656 C30.51967106 5.00399395 33.30655424 5.56111654 36.09375 6.1171875 C37.86468172 6.47346962 39.63551868 6.83022322 41.40625 7.1875 C42.65613708 7.43753784 42.65613708 7.43753784 43.93127441 7.69262695 C49.76849058 8.88424529 49.76849058 8.88424529 52 10 C50.70641016 13.88076953 48.36867547 15.22496318 45.125 17.4375 C44.54145752 17.83638428 43.95791504 18.23526855 43.35668945 18.64624023 C35.90114109 23.57915091 28.07115581 27.18965978 19 26 C11.88381497 23.92559085 7.78930729 19.17800986 4 13 C1.91008252 8.73385577 0 4.79502994 0 0 Z " fill="#F9F9F9" transform="translate(168,189)"/>
<path d="M0 0 C1.2301181 -0.00014603 2.46023621 -0.00029205 3.72763062 -0.0004425 C7.07831425 0.00013213 10.42893522 0.00512514 13.77960777 0.01213145 C17.28963407 0.01841007 20.79966133 0.01897234 24.30969238 0.02015686 C30.94638619 0.02325693 37.5830634 0.03145238 44.21974993 0.04150635 C52.5221478 0.05380897 60.8245484 0.05926053 69.12695312 0.06469727 C83.9264452 0.07441863 98.72590109 0.09445388 113.52539062 0.11352539 C113.52539062 18.26352539 113.52539062 36.41352539 113.52539062 55.11352539 C70.95539063 55.44352539 28.38539063 55.77352539 -15.47460938 56.11352539 C-12.47460938 53.11352539 -12.47460938 53.11352539 -10.32508564 52.7443819 C-9.48717582 52.74714728 -8.649266 52.74991266 -7.78596497 52.75276184 C-6.82262741 52.74863785 -5.85928986 52.74451385 -4.86676025 52.74026489 C-3.81156189 52.75105072 -2.75636353 52.76183655 -1.66918945 52.77294922 C-0.55684433 52.77251114 0.55550079 52.77207306 1.70155334 52.7716217 C5.38649919 52.77371548 9.07099279 52.79707492 12.75585938 52.82055664 C15.30747733 52.82615048 17.8590985 52.83042158 20.41072083 52.8334198 C26.44559271 52.84371265 32.4802698 52.8673684 38.51506358 52.89746827 C45.3855961 52.93099316 52.25613638 52.94749345 59.12673032 52.96255457 C73.25970732 52.99391756 87.39254006 53.04668997 101.52539062 53.11352539 C101.52539062 52.12352539 101.52539062 51.13352539 101.52539062 50.11352539 C102.18539062 50.11352539 102.84539062 50.11352539 103.52539062 50.11352539 C103.52539062 50.77352539 103.52539062 51.43352539 103.52539062 52.11352539 C105.17539062 51.45352539 106.82539063 50.79352539 108.52539062 50.11352539 C108.85539063 51.10352539 109.18539062 52.09352539 109.52539062 53.11352539 C110.18539062 53.11352539 110.84539062 53.11352539 111.52539062 53.11352539 C111.19539062 52.12352539 110.86539063 51.13352539 110.52539062 50.11352539 C110.43851263 48.56382091 110.40770402 47.01062832 110.41186523 45.45849609 C110.41194077 44.51774734 110.4120163 43.5769986 110.41209412 42.60774231 C110.4172554 41.59515854 110.42241669 40.58257477 110.42773438 39.53930664 C110.4298568 37.98085274 110.4298568 37.98085274 110.43202209 36.39091492 C110.43762407 33.06925591 110.45017691 29.74766406 110.46289062 26.42602539 C110.46790537 24.17537532 110.47246832 21.9247242 110.4765625 19.67407227 C110.48759414 14.15386702 110.50433419 8.633701 110.52539062 3.11352539 C94.66089208 3.09011577 78.79639823 3.07250671 62.93188667 3.06171322 C55.56493679 3.05656735 48.19799766 3.04955737 40.83105469 3.03808594 C34.4064794 3.02808672 27.98191191 3.02165954 21.55732906 3.0194369 C18.15880611 3.01813866 14.76030547 3.01510933 11.3617897 3.00779533 C7.55839987 3.00050998 3.75505587 2.99953761 -0.04833984 3 C-1.16252792 2.99640472 -2.276716 2.99280945 -3.42466736 2.98910522 C-14.06462361 2.20358468 -14.06462361 2.20358468 -23.47460938 5.11352539 C-26.47367136 5.61261286 -29.48085209 6.01448361 -32.49414062 6.41821289 C-35.59763127 7.14222513 -37.03796325 8.14608027 -39.47460938 10.11352539 C-42.22460938 10.30102539 -42.22460938 10.30102539 -44.47460938 10.11352539 C-44.47460938 9.45352539 -44.47460938 8.79352539 -44.47460938 8.11352539 C-29.79832753 2.31948226 -15.69743969 -0.04909963 0 0 Z " fill="#D87B23" transform="translate(188.474609375,93.886474609375)"/>
<path d="M0 0 C0.33 0.66 0.66 1.32 1 2 C1.66 2 2.32 2 3 2 C3.33 1.34 3.66 0.68 4 0 C4 1.98 4 3.96 4 6 C-62.33 6.495 -62.33 6.495 -130 7 C-126.72201932 3.72201932 -122.43753585 4.54148389 -117.96875 4.34375 C-114.88393229 4.29798671 -114.88393229 4.29798671 -113 2 C-111.14810848 1.75111103 -111.14810848 1.75111103 -108.85594177 1.75276184 C-107.55399872 1.74647011 -107.55399872 1.74647011 -106.22575378 1.74005127 C-105.27138931 1.74567078 -104.31702484 1.75129028 -103.33374023 1.75708008 C-102.33043671 1.75518173 -101.32713318 1.75328339 -100.29342651 1.75132751 C-96.96507035 1.74761182 -93.63693063 1.75833456 -90.30859375 1.76953125 C-88.00456264 1.77072262 -85.70053104 1.7711763 -83.39649963 1.7709198 C-78.56353727 1.772486 -73.73064884 1.78078661 -68.89770508 1.79418945 C-62.68748452 1.81118898 -56.47734524 1.81500361 -50.26710415 1.81424427 C-45.50864377 1.81451554 -40.75020133 1.81998967 -35.9917469 1.82724571 C-33.70109251 1.8304387 -31.41043608 1.83240125 -29.11977959 1.83313942 C-25.92543919 1.83529579 -22.73118687 1.84402446 -19.53686523 1.85473633 C-18.10228218 1.85405655 -18.10228218 1.85405655 -16.63871765 1.85336304 C-15.77357544 1.85762802 -14.90843323 1.86189301 -14.01707458 1.86628723 C-12.8830176 1.868801 -12.8830176 1.868801 -11.72605038 1.87136555 C-10 2 -10 2 -9 3 C-6.67182036 3.36760731 -4.3381615 3.70241581 -2 4 C-2 3.34 -2 2.68 -2 2 C-1.34 2 -0.68 2 0 2 C0 1.34 0 0.68 0 0 Z " fill="#4D3E2F" transform="translate(298,88)"/>
<path d="M0 0 C0.90573257 0.16076523 1.81146515 0.32153046 2.74464417 0.48716736 C8.17079207 1.2560142 13.61512777 1.17733438 19.08569336 1.20532227 C20.88676041 1.22017166 20.88676041 1.22017166 22.72421265 1.23532104 C25.99847475 1.26139865 29.2727322 1.28330569 32.54703593 1.30332303 C35.97568349 1.3252819 39.40428814 1.35262187 42.832901 1.37937927 C49.31730795 1.42917293 55.80173888 1.47416085 62.28619248 1.51740164 C70.3972073 1.57174762 78.50817216 1.63254503 86.61914062 1.69335938 C101.07938859 1.80175091 115.53968271 1.90041979 130 2 C130 20.15 130 38.3 130 57 C99.86386081 57.08032734 99.86386081 57.08032734 84.89461422 57.10050774 C76.82400575 57.11155698 68.75343897 57.12554749 60.68286133 57.15087891 C54.28936753 57.17093668 47.8959053 57.18374553 41.50238091 57.18817699 C38.12323057 57.19076361 34.7441705 57.1967574 31.36504936 57.21146011 C-1.2943714 57.33778763 -1.2943714 57.33778763 -15.5625 53.0625 C-17.20412109 52.58490234 -17.20412109 52.58490234 -18.87890625 52.09765625 C-22.08992297 50.96837503 -24.98545085 49.57560435 -28 48 C-28.90363281 47.56558594 -29.80726563 47.13117188 -30.73828125 46.68359375 C-32.01251953 46.06677734 -32.01251953 46.06677734 -33.3125 45.4375 C-34.60607422 44.81681641 -34.60607422 44.81681641 -35.92578125 44.18359375 C-38 43 -38 43 -39 41 C-35.03750236 41.48030274 -32.22824968 42.92620861 -28.81640625 44.9453125 C-23.71559609 47.90707324 -19.79118576 49.21769474 -13.99609375 48.98046875 C-10.71492076 49.01257416 -8.0741044 49.87073716 -5 51 C-4.67 51.66 -4.34 52.32 -4 53 C-3.06933716 53.03758423 -3.06933716 53.03758423 -2.11987305 53.07592773 C0.69112397 53.19196721 3.50179241 53.31465759 6.3125 53.4375 C7.77719727 53.49647461 7.77719727 53.49647461 9.27148438 53.55664062 C10.20927734 53.59853516 11.14707031 53.64042969 12.11328125 53.68359375 C12.97735596 53.72025146 13.84143066 53.75690918 14.73168945 53.79467773 C17 54 17 54 20 55 C21.49718464 55.10022386 22.99833829 55.14613161 24.49882507 55.15821838 C25.88072525 55.17290161 25.88072525 55.17290161 27.2905426 55.18788147 C28.29898727 55.19363693 29.30743195 55.1993924 30.34643555 55.20532227 C31.41001282 55.21522186 32.47359009 55.22512146 33.56939697 55.23532104 C37.09181477 55.26695825 40.61424606 55.29170235 44.13671875 55.31640625 C46.5762416 55.33697385 49.01576088 55.35797027 51.45527649 55.37937927 C57.88157251 55.43461992 64.3079008 55.48402046 70.73425293 55.53222656 C78.44187201 55.59125048 86.14943202 55.65748943 93.85700226 55.72252655 C105.57129881 55.82056114 117.28563295 55.90940016 129 56 C129 38.51 129 21.02 129 3 C125.30538574 3.00523682 121.61077148 3.01047363 117.80419922 3.01586914 C105.60255102 3.03243265 93.40090361 3.04353325 81.19924736 3.05181217 C73.80079449 3.05696564 66.40235228 3.06399028 59.00390625 3.07543945 C52.55446558 3.08541526 46.10503263 3.09186033 39.65558445 3.09408849 C36.24153953 3.09539067 32.82751669 3.09844537 29.41347885 3.10573006 C25.59969518 3.11297978 21.78595741 3.11398927 17.97216797 3.11352539 C16.84359879 3.11712067 15.7150296 3.12071594 14.55226135 3.12442017 C9.59170712 3.11788339 4.87257816 3.06660495 0 2 C0 1.34 0 0.68 0 0 Z " fill="#C2722A" transform="translate(172,249)"/>
<path d="M0 0 C43.56 0.33 87.12 0.66 132 1 C131.67 1.99 131.34 2.98 131 4 C130.39414062 3.98839844 129.78828125 3.97679687 129.1640625 3.96484375 C127.90722656 3.95130859 127.90722656 3.95130859 126.625 3.9375 C125.40683594 3.92009766 125.40683594 3.92009766 124.1640625 3.90234375 C121.5918003 3.98173456 119.1503214 4.2005203 116.59985352 4.49780273 C110.47520725 5.12068984 104.38988297 5.14383722 98.23828125 5.1328125 C97.04824997 5.13376923 95.85821869 5.13472595 94.63212585 5.13571167 C92.13194729 5.13638852 89.63176693 5.134569 87.1315918 5.13037109 C83.31359919 5.12500155 79.49572344 5.13034031 75.67773438 5.13671875 C73.23958308 5.13605816 70.80143185 5.13477739 68.36328125 5.1328125 C67.22772293 5.13483673 66.09216461 5.13686096 64.92219543 5.13894653 C50.09519898 5.09519898 50.09519898 5.09519898 48 3 C46.60434233 2.88828191 45.20324258 2.84331228 43.80322266 2.82641602 C42.91204742 2.81292618 42.02087219 2.79943634 41.10269165 2.78553772 C40.13294403 2.77509933 39.16319641 2.76466095 38.1640625 2.75390625 C36.13020403 2.72096797 34.09634997 2.68775632 32.0625 2.65429688 C28.8408513 2.60684738 25.61922053 2.56242961 22.39746094 2.52319336 C19.298635 2.48354396 16.20018346 2.43197937 13.1015625 2.37890625 C12.13586334 2.3704921 11.17016418 2.36207794 10.17520142 2.35340881 C9.27772186 2.33676682 8.38024231 2.32012482 7.45556641 2.30297852 C6.66582428 2.29267105 5.87608215 2.28236359 5.06240845 2.27174377 C3 2 3 2 0 0 Z " fill="#4F3E2B" transform="translate(168,305)"/>
<path d="M0 0 C0.33 0 0.66 0 1 0 C0.99476318 1.2595752 0.98952637 2.51915039 0.98413086 3.81689453 C0.96583348 8.55451732 0.95447891 13.29213708 0.94506836 18.02978516 C0.94008406 20.06820198 0.93329421 22.10661532 0.92456055 24.14501953 C0.07001505 42.81543454 0.07001505 42.81543454 3 61 C3.0685495 62.89470816 3.08480372 64.7916834 3.0625 66.6875 C3.05347656 67.68136719 3.04445313 68.67523438 3.03515625 69.69921875 C3.01775391 70.83810547 3.01775391 70.83810547 3 72 C4.65 72 6.3 72 8 72 C8 72.99 8 73.98 8 75 C7.01 75.495 7.01 75.495 6 76 C6.33 77.65 6.66 79.3 7 81 C7.99 80.505 7.99 80.505 9 80 C9.14695312 80.81791016 9.14695312 80.81791016 9.296875 81.65234375 C10.62005783 88.32529166 12.56098559 94.74798078 16.6875 100.25 C18.32394813 102.43193084 18.62892005 104.32822438 19 107 C19.66 107 20.32 107 21 107 C24 110.46153846 24 110.46153846 24 113 C25.32 113 26.64 113 28 113 C29.625 115.4375 29.625 115.4375 31 118 C31.99 118.495 31.99 118.495 33 119 C32.505 120.485 32.505 120.485 32 122 C17.43432323 109.95822964 6.70618453 94.6157843 2.46923828 76.03515625 C2.14759246 74.64013045 1.80637611 73.2495145 1.44873047 71.86328125 C-1.92360444 58.61339735 -2.37691009 45.53209932 -2.375 31.9375 C-2.37681274 31.09792755 -2.37862549 30.2583551 -2.38049316 29.39334106 C-2.378052 19.40007058 -1.91629097 9.83615176 0 0 Z " fill="#E94712" transform="translate(100,168)"/>
<path d="M0 0 C1.17232681 -0.00043808 2.34465363 -0.00087616 3.55250549 -0.00132751 C7.37787285 0.00074103 11.2027866 0.02398043 15.02807617 0.04760742 C17.69993327 0.05321027 20.37176615 0.05762492 23.04362488 0.06047058 C29.32606092 0.06973902 35.60833754 0.09428104 41.89070386 0.12451905 C49.05166871 0.15822662 56.21264178 0.17458988 63.37366641 0.18960536 C78.08537355 0.22083626 92.79695643 0.27349374 107.50854492 0.34057617 C107.50854492 1.00057617 107.50854492 1.66057617 107.50854492 2.34057617 C106.94054483 2.33965438 106.37254475 2.33873259 105.78733253 2.33778286 C91.93079419 2.31564449 78.07425896 2.29918814 64.21770668 2.288764 C57.51663147 2.28362001 50.81556985 2.27648753 44.11450195 2.26513672 C37.6435674 2.25424474 31.17264513 2.24828597 24.70170212 2.24569893 C22.2370624 2.24385605 19.77242332 2.24025739 17.30778885 2.23484612 C13.8468609 2.22755192 10.38598326 2.22658876 6.92504883 2.22705078 C5.40805389 2.22165787 5.40805389 2.22165787 3.8604126 2.21615601 C-6.43476375 1.48558625 -6.43476375 1.48558625 -15.49145508 4.34057617 C-18.49051706 4.83966364 -21.4976978 5.24153439 -24.51098633 5.64526367 C-27.61447697 6.36927591 -29.05480895 7.37313105 -31.49145508 9.34057617 C-34.24145508 9.52807617 -34.24145508 9.52807617 -36.49145508 9.34057617 C-36.49145508 8.68057617 -36.49145508 8.02057617 -36.49145508 7.34057617 C-34.93325142 6.72541361 -33.36948017 6.12436034 -31.80395508 5.52807617 C-30.93383789 5.19163086 -30.0637207 4.85518555 -29.16723633 4.50854492 C-19.40693347 1.40723721 -10.23077658 -0.10261532 0 0 Z " fill="#F27D12" transform="translate(180.491455078125,94.659423828125)"/>
<path d="M0 0 C1.28186834 2.56373668 0.83087832 3.51726439 0.22265625 6.29296875 C-4.94561557 32.10496268 -5.76237576 60.39121101 0.54248047 86.07080078 C1.16436162 88.69305525 1.59517858 91.3367012 2 94 C-8.2832576 80.9122176 -6.29478307 60.05857296 -6.3125 44.125 C-6.31590393 43.39665955 -6.31930786 42.66831909 -6.32281494 41.91790771 C-6.34271939 34.48768123 -6.13117163 27.38599147 -4.42553711 20.12353516 C-3.56259727 15.81725245 -4.07893889 11.45594251 -4.3203125 7.1015625 C-4 4 -4 4 -1.9921875 1.5859375 C-1.33476563 1.06257812 -0.67734375 0.53921875 0 0 Z " fill="#663826" transform="translate(102,154)"/>
<path d="M0 0 C0.6875 1.6875 0.6875 1.6875 1 4 C0.05988318 5.70116376 -0.94895617 7.36504293 -2 9 C-3.98762912 13.81754951 -4.2932744 18.25393038 -4.265625 23.3984375 C-4.26753845 24.19222809 -4.2694519 24.98601868 -4.27142334 25.80386353 C-4.27277882 27.47634194 -4.26912705 29.14883111 -4.26074219 30.82128906 C-4.25006196 33.3602708 -4.26064429 35.89854047 -4.2734375 38.4375 C-4.27211524 40.07031404 -4.26955146 41.70312764 -4.265625 43.3359375 C-4.26967346 44.08515472 -4.27372192 44.83437195 -4.27789307 45.60629272 C-4.24504905 49.36147652 -3.91809186 52.66198385 -2.92089844 56.29150391 C-2.05007277 59.79835487 -1.98165194 60.7704376 -3 64 C-7.69746134 54.39155635 -8.33075675 44.44067491 -8.25 33.875 C-8.25773438 32.85535156 -8.26546875 31.83570313 -8.2734375 30.78515625 C-8.2509069 22.00948683 -6.92593187 14.58066606 -3.4375 6.5 C-3.00308594 5.4790625 -2.56867188 4.458125 -2.12109375 3.40625 C-1 1 -1 1 0 0 Z " fill="#4B3C37" transform="translate(154,165)"/>
<path d="M0 0 C5.28 0.66 10.56 1.32 16 2 C16 2.33 16 2.66 16 3 C74.41 3.495 74.41 3.495 134 4 C134 4.33 134 4.66 134 5 C118.28317839 5.07025844 102.56639957 5.12307029 86.84945965 5.15543652 C79.55087198 5.17086798 72.25238222 5.19188576 64.95385742 5.22631836 C58.58823556 5.2563353 52.22268465 5.27560201 45.85699397 5.28226548 C42.49021763 5.28615707 39.12364416 5.29522383 35.75693321 5.31719017 C31.98716752 5.33907629 28.2178174 5.34196218 24.44799805 5.34057617 C23.34675598 5.351362 22.24551392 5.36214783 21.11090088 5.3732605 C14.13409538 5.3456386 7.52189646 4.65003282 1 2 C0.67 1.34 0.34 0.68 0 0 Z " fill="#5D3A15" transform="translate(167,246)"/>
<path d="M0 0 C0 0.33 0 0.66 0 1 C-1.09699219 1.26554687 -2.19398438 1.53109375 -3.32421875 1.8046875 C-4.77869247 2.16126815 -6.23311698 2.5180496 -7.6875 2.875 C-8.7693457 3.13603516 -8.7693457 3.13603516 -9.87304688 3.40234375 C-12.96196387 4.16399452 -15.87244854 4.94897942 -18.83203125 6.1328125 C-21 7 -21 7 -24 7 C-24 7.66 -24 8.32 -24 9 C-24.556875 9.21914062 -25.11375 9.43828125 -25.6875 9.6640625 C-31.46337205 12.06417149 -36.16390222 15.04678655 -41 19 C-39.44805246 15.67240077 -37.69378051 13.51419515 -35 11 C-35.99 11.33 -36.98 11.66 -38 12 C-38 9 -38 9 -36 6 C-29.7501682 2.6056948 -23.82797777 2.81686398 -17 4 C-17 3.34 -17 2.68 -17 2 C-11.19233704 0.4943096 -6.0018137 -0.21824777 0 0 Z " fill="#543E31" transform="translate(168,95)"/>
<path d="M0 0 C1.74283425 2.61425138 2.38165402 4.03320944 3.1875 6.9375 C5.80836036 15.10763101 10.54789776 22.43351202 16 29 C15.67 29.66 15.34 30.32 15 31 C12.6875 30.4375 12.6875 30.4375 10 29 C8.65223022 26.72037377 7.88635784 24.51912228 7 22 C6.67 22.66 6.34 23.32 6 24 C4.35 24 2.7 24 1 24 C1.33 22.68 1.66 21.36 2 20 C1.34 20 0.68 20 0 20 C0.08378906 19.31035156 0.16757813 18.62070312 0.25390625 17.91015625 C0.92681526 11.7006541 0.9115949 6.17858768 0 0 Z " fill="#4E3F33" transform="translate(104,248)"/>
<path d="M0 0 C3.96249764 0.48030274 6.77175032 1.92620861 10.18359375 3.9453125 C15.28440391 6.90707324 19.20881424 8.21769474 25.00390625 7.98046875 C28.28507924 8.01257416 30.9258956 8.87073716 34 10 C34.495 10.99 34.495 10.99 35 12 C41.93 12.33 48.86 12.66 56 13 C56 13.33 56 13.66 56 14 C39.58757883 14.50261832 25.88834152 14.64006999 11 7 C9.64455078 6.34837891 9.64455078 6.34837891 8.26171875 5.68359375 C7.41222656 5.27238281 6.56273437 4.86117188 5.6875 4.4375 C4.39392578 3.81681641 4.39392578 3.81681641 3.07421875 3.18359375 C1 2 1 2 0 0 Z " fill="#E86516" transform="translate(133,290)"/>
<path d="M0 0 C0.33 0 0.66 0 1 0 C1.1943287 4.85821752 0.65556789 8.4471883 -1 13 C-1 13.99 -1 14.98 -1 16 C-1.99 16.66 -2.98 17.32 -4 18 C-4.31765149 20.00120436 -4.6304797 22.00730096 -4.7890625 24.02734375 C-5 26 -5 26 -6 29 C-6.66 29 -7.32 29 -8 29 C-8.33 29.99 -8.66 30.98 -9 32 C-8.74285478 29.31056352 -8.4697388 26.62432453 -8.1875 23.9375 C-8.11724609 23.18533203 -8.04699219 22.43316406 -7.97460938 21.65820312 C-7.4216948 16.5492725 -6.24562584 12.62598923 -4 8 C-3.61457031 7.19691406 -3.22914062 6.39382812 -2.83203125 5.56640625 C-1.88802083 3.7109375 -0.94401042 1.85546875 0 0 Z " fill="#E94A11" transform="translate(110,136)"/>
<path d="M0 0 C0.33 0 0.66 0 1 0 C1.02888514 3.14581423 1.04675923 6.29159469 1.0625 9.4375 C1.07087891 10.33533203 1.07925781 11.23316406 1.08789062 12.15820312 C1.09111328 13.01220703 1.09433594 13.86621094 1.09765625 14.74609375 C1.10289307 15.53685303 1.10812988 16.3276123 1.11352539 17.14233398 C1 19 1 19 0 20 C-0.08865208 22.8843382 -0.11521296 25.74462158 -0.09765625 28.62890625 C-0.0962413 29.49313705 -0.09482635 30.35736786 -0.09336853 31.24778748 C-0.08775239 34.01939292 -0.07519719 36.7909188 -0.0625 39.5625 C-0.05748708 41.4368478 -0.05292381 43.31119685 -0.04882812 45.18554688 C-0.03777772 49.79039544 -0.0205023 54.39518421 0 59 C-0.33 59 -0.66 59 -1 59 C-1.87769142 53.70583538 -2.16028155 48.60381871 -2.16796875 43.2421875 C-2.17129715 42.41727814 -2.17462555 41.59236877 -2.17805481 40.74246216 C-2.1830945 39.00279289 -2.18546405 37.26311406 -2.18530273 35.5234375 C-2.18747637 32.90347731 -2.20562827 30.28394769 -2.22460938 27.6640625 C-2.25517158 18.23007994 -1.86444362 9.28102077 0 0 Z " fill="#CE4A1F" transform="translate(100,168)"/>
<path d="M0 0 C-0.75 4.75 -0.75 4.75 -3 7 C-4.32 7 -5.64 7 -7 7 C-7.33 7.66 -7.66 8.32 -8 9 C-10.64 8.67 -13.28 8.34 -16 8 C-10.96256279 2.82641584 -7.42927834 0 0 0 Z " fill="#4C3E38" transform="translate(176,151)"/>
<path d="M0 0 C4.24990638 1.41663546 5.80454354 4.20784794 8 8 C8.8125 10.9375 8.8125 10.9375 9 13 C9.66 13 10.32 13 11 13 C14 16.46153846 14 16.46153846 14 19 C15.32 19 16.64 19 18 19 C19.625 21.4375 19.625 21.4375 21 24 C21.66 24.33 22.32 24.66 23 25 C22.67 25.99 22.34 26.98 22 28 C13.027602 20.58231814 5.64096255 12.25629555 0 2 C0 1.34 0 0.68 0 0 Z " fill="#DD551B" transform="translate(110,262)"/>
<path d="M0 0 C0.6875 1.6875 0.6875 1.6875 1 4 C0.55527344 4.73992187 0.11054688 5.47984375 -0.34765625 6.2421875 C-7.36016843 17.94628584 -6.79056591 32.8255123 -7 46 C-7.33 46 -7.66 46 -8 46 C-8.05872928 42.1875662 -8.09383916 38.37525094 -8.125 34.5625 C-8.14175781 33.49322266 -8.15851563 32.42394531 -8.17578125 31.32226562 C-8.231066 22.2832082 -7.03136865 14.8249017 -3.4375 6.5 C-3.00308594 5.4790625 -2.56867188 4.458125 -2.12109375 3.40625 C-1 1 -1 1 0 0 Z " fill="#743F23" transform="translate(154,165)"/>
<path d="M0 0 C5.28 0.66 10.56 1.32 16 2 C16 2.33 16 2.66 16 3 C24.25 3.33 32.5 3.66 41 4 C41 4.33 41 4.66 41 5 C37.07146129 5.0751855 33.14321167 5.12908016 29.21411133 5.16479492 C27.23438764 5.1869747 25.25486336 5.22512997 23.27539062 5.26367188 C15.56744685 5.32221322 8.18632574 5.08239849 1 2 C0.67 1.34 0.34 0.68 0 0 Z " fill="#6B3B19" transform="translate(167,246)"/>
<path d="M0 0 C-1.56361962 3.83797544 -4.02510083 6.1667627 -7 9 C-7.763125 9.763125 -8.52625 10.52625 -9.3125 11.3125 C-9.869375 11.869375 -10.42625 12.42625 -11 13 C-11.99 12.67 -12.98 12.34 -14 12 C-14.33 12.99 -14.66 13.98 -15 15 C-15.66 14.67 -16.32 14.34 -17 14 C-5.62944162 0 -5.62944162 0 0 0 Z " fill="#DD5717" transform="translate(140,105)"/>
<path d="M0 0 C0 0.66 0 1.32 0 2 C-0.71027344 2.06058594 -1.42054688 2.12117188 -2.15234375 2.18359375 C-3.07144531 2.26738281 -3.99054688 2.35117188 -4.9375 2.4375 C-6.31228516 2.55931641 -6.31228516 2.55931641 -7.71484375 2.68359375 C-9.96159732 2.76044976 -9.96159732 2.76044976 -11 4 C-13.99906199 4.49908747 -17.00624272 4.90095822 -20.01953125 5.3046875 C-23.1230219 6.02869973 -24.56335387 7.03255488 -27 9 C-29.75 9.1875 -29.75 9.1875 -32 9 C-32 8.34 -32 7.68 -32 7 C-21.70801567 2.93683184 -11.18390484 -0.65787676 0 0 Z " fill="#D66620" transform="translate(176,95)"/>
<path d="M0 0 C3.98103298 4.77723958 7.46719209 9.88933687 11 15 C10.67 15.66 10.34 16.32 10 17 C7.6875 16.4375 7.6875 16.4375 5 15 C3.65223022 12.72037377 2.88635784 10.51912228 2 8 C1.67 8.66 1.34 9.32 1 10 C0.34 10 -0.32 10 -1 10 C-0.67 6.7 -0.34 3.4 0 0 Z " fill="#6C3D26" transform="translate(109,262)"/>
<path d="M0 0 C1.65 0 3.3 0 5 0 C4.01 0.7734375 4.01 0.7734375 3 1.5625 C-0.15780522 4.12821674 -3.19608244 6.80223805 -6.23046875 9.51171875 C-8 11 -8 11 -10 12 C-9.70842276 8.20949594 -9.45454034 5.64934335 -7.25 2.5 C-5 1 -5 1 -2.25 1.25 C-1.5075 1.4975 -0.765 1.745 0 2 C0 1.34 0 0.68 0 0 Z " fill="#E86315" transform="translate(165,151)"/>
<path d="M0 0 C0.99 0.33 1.98 0.66 3 1 C-2.44041451 7.45595855 -2.44041451 7.45595855 -5.25 10.1875 C-7.02319233 12.02402063 -7.99974974 13.66608272 -9 16 C-9.66 16 -10.32 16 -11 16 C-11.66 17.32 -12.32 18.64 -13 20 C-12.01755726 11.64923672 -5.42425941 5.92455518 0 0 Z " fill="#733C23" transform="translate(124,114)"/>
<path d="M0 0 C0.33 0 0.66 0 1 0 C0.66672576 6.44330198 -0.2842626 9.50882152 -5 14 C-5.99 14 -6.98 14 -8 14 C-7.34 12.02 -6.68 10.04 -6 8 C-5.34 8 -4.68 8 -4 8 C-3.566875 6.8553125 -3.566875 6.8553125 -3.125 5.6875 C-2 3 -2 3 0 0 Z " fill="#E74E14" transform="translate(119,122)"/>
<path d="M0 0 C0.680625 0.70125 1.36125 1.4025 2.0625 2.125 C4.6968409 4.76684614 7.49197469 7.1765399 10.3515625 9.5703125 C11.9783852 10.98125352 13.49610471 12.45964664 15 14 C7.65306122 12.65306122 7.65306122 12.65306122 4.5 9.5 C3 7 3 7 3 5 C2.01 5 1.02 5 0 5 C0 3.35 0 1.7 0 0 Z " fill="#DF641E" transform="translate(153,234)"/>
<path d="M0 0 C3.95962039 0.47995399 6.77301502 1.90822475 10.16796875 3.95703125 C11.97156185 4.98381026 13.76532013 5.78457282 15.6875 6.5625 C18.53925144 7.80005251 20.6383932 9.01625029 23 11 C18.37216387 10.44906713 15.09017022 9.20239935 11 7 C8.35907057 5.7257616 5.71791105 4.45209185 3.07421875 3.18359375 C1 2 1 2 0 0 Z " fill="#D35F1D" transform="translate(133,290)"/>
<path d="M0 0 C0.66 0 1.32 0 2 0 C3.43484866 6.69596042 2.59058175 10.20575649 -1 16 C-3.03125 12.3359375 -3.03125 12.3359375 -2.75 9.3125 C-2.5025 8.549375 -2.255 7.78625 -2 7 C-1.34 6.67 -0.68 6.34 0 6 C0 4.02 0 2.04 0 0 Z " fill="#523D2D" transform="translate(108,128)"/>
<path d="M0 0 C1.98 1.65 3.96 3.3 6 5 C6.66 4.34 7.32 3.68 8 3 C8.103125 4.11375 8.20625 5.2275 8.3125 6.375 C8.6528125 8.169375 8.6528125 8.169375 9 10 C9.99 10.66 10.98 11.32 12 12 C12 12.66 12 13.32 12 14 C12.99 14.33 13.98 14.66 15 15 C14.01 15.495 14.01 15.495 13 16 C7.81106893 11.76387513 3.57260742 7.69384308 0 2 C0 1.34 0 0.68 0 0 Z " fill="#643B21" transform="translate(152,230)"/>
<path d="M0 0 C6.25265702 0.72705314 10.11494063 3.20050938 15 7 C13.63875 6.9690625 13.63875 6.9690625 12.25 6.9375 C9.57327412 6.9889755 7.53011948 7.2215017 5 8 C4.9175 7.4225 4.835 6.845 4.75 6.25 C3.79468987 3.3840696 2.21530827 2.0009236 0 0 Z " fill="#633D29" transform="translate(137,294)"/>
<path d="M0 0 C0.99 0.33 1.98 0.66 3 1 C1.67719408 3.64561184 0.56133128 3.77386561 -2.1875 4.75 C-6.42053876 6.10917059 -8.90795812 5.99355887 -13 4 C-9.95401253 1.96934169 -8.87187319 1.70517596 -5.375 1.4375 C-2.38885578 1.41022777 -2.38885578 1.41022777 0 0 Z " fill="#F3620B" transform="translate(166,97)"/>
<path d="M0 0 C1.5625 1.125 1.5625 1.125 3 3 C2.75528519 5.99775644 2.34661086 8.30677828 1 11 C-0.32 11 -1.64 11 -3 11 C-3 9.68 -3 8.36 -3 7 C-2.34 7 -1.68 7 -1 7 C-0.67 4.69 -0.34 2.38 0 0 Z " fill="#FA5A05" transform="translate(147,165)"/>
<path d="M0 0 C0.33 0 0.66 0 1 0 C1.125 5.75 1.125 5.75 0 8 C-0.66 8 -1.32 8 -2 8 C-2.04898438 8.90363281 -2.09796875 9.80726563 -2.1484375 10.73828125 C-2.22320312 11.91777344 -2.29796875 13.09726563 -2.375 14.3125 C-2.47941406 16.07013672 -2.47941406 16.07013672 -2.5859375 17.86328125 C-3 21 -3 21 -5 24 C-4.74285478 21.31056352 -4.4697388 18.62432453 -4.1875 15.9375 C-4.11724609 15.18533203 -4.04699219 14.43316406 -3.97460938 13.65820312 C-3.42463155 8.57640806 -2.23130504 4.60321286 0 0 Z " fill="#AA451E" transform="translate(106,144)"/>
<path d="M0 0 C1.4552777 2.9105554 0.63516661 4.95849052 0.0625 8.125 C-0.13214844 9.22070312 -0.32679687 10.31640625 -0.52734375 11.4453125 C-0.68332031 12.28835937 -0.83929688 13.13140625 -1 14 C-1.66 14 -2.32 14 -3 14 C-3.58718592 10.65559323 -4.05863115 7.40060685 -4 4 C-2.0625 1.375 -2.0625 1.375 0 0 Z " fill="#5C3931" transform="translate(102,154)"/>
<path d="M0 0 C2 1 2 1 2.88671875 3.58203125 C3.15097656 4.64808594 3.41523438 5.71414062 3.6875 6.8125 C3.95949219 7.87082031 4.23148438 8.92914063 4.51171875 10.01953125 C4.97258895 12.83268294 4.9525694 14.35965663 4 17 C1.16625922 11.33251843 0.36776168 6.30267439 0 0 Z " fill="#693D25" transform="translate(147,212)"/>
<path d="M0 0 C0.66 0 1.32 0 2 0 C0.53333333 5.5 0.53333333 5.5 -2 7.875 C-4 9 -4 9 -6 9 C-5.75 6.625 -5.75 6.625 -5 4 C-3 2.8125 -3 2.8125 -1 2 C-0.67 1.34 -0.34 0.68 0 0 Z " fill="#F84E05" transform="translate(126,117)"/>
<path d="M0 0 C0 0.33 0 0.66 0 1 C-5.94 2.32 -11.88 3.64 -18 5 C-17.67 4.01 -17.34 3.02 -17 2 C-11.6230678 -0.20018889 -5.71545019 -0.20783455 0 0 Z " fill="#603B24" transform="translate(168,95)"/>
<path d="M0 0 C4.66666667 4 9.33333333 8 14 12 C13.01 12.33 12.02 12.66 11 13 C9.83593677 11.83593677 8.67245135 10.67129061 7.51171875 9.50390625 C6.46205398 8.4596661 5.40128152 7.42652024 4.33203125 6.40234375 C2.85185191 4.97138652 1.42232322 3.48847779 0 2 C0 1.34 0 0.68 0 0 Z " fill="#6D3821" transform="translate(120,279)"/>
<path d="M0 0 C2.0625 2.25 2.0625 2.25 4 5 C3.75 7.3125 3.75 7.3125 3 9 C2.67 8.67 2.34 8.34 2 8 C1.67 8.66 1.34 9.32 1 10 C0.34 10 -0.32 10 -1 10 C-0.67 6.7 -0.34 3.4 0 0 Z " fill="#5C3C2A" transform="translate(109,262)"/>
<path d="M0 0 C-0.63808594 0.27714844 -1.27617187 0.55429688 -1.93359375 0.83984375 C-2.75988281 1.20207031 -3.58617187 1.56429687 -4.4375 1.9375 C-5.26121094 2.29714844 -6.08492187 2.65679687 -6.93359375 3.02734375 C-8.94410117 3.83122323 -8.94410117 3.83122323 -10 5 C-11.66617115 5.04063832 -13.33388095 5.042721 -15 5 C-15 4.34 -15 3.68 -15 3 C-13.25531628 2.29911844 -11.50398839 1.61475991 -9.75 0.9375 C-8.77546875 0.55464844 -7.8009375 0.17179687 -6.796875 -0.22265625 C-3.95992605 -1.01113787 -2.70590448 -1.02437812 0 0 Z " fill="#CA5E23" transform="translate(159,99)"/>
<path d="M0 0 C5.28 0.66 10.56 1.32 16 2 C16 2.33 16 2.66 16 3 C13.89646505 3.0810206 11.79204048 3.13919907 9.6875 3.1875 C8.51574219 3.22230469 7.34398437 3.25710937 6.13671875 3.29296875 C3 3 3 3 0 0 Z " fill="#633F27" transform="translate(167,246)"/>
<path d="M0 0 C0.99 0.33 1.98 0.66 3 1 C0.69 3.31 -1.62 5.62 -4 8 C-4.33 6.68 -4.66 5.36 -5 4 C-2.6875 1.9375 -2.6875 1.9375 0 0 Z " fill="#D9611B" transform="translate(160,155)"/>
<path d="M0 0 C0.99 0.33 1.98 0.66 3 1 C3 1.66 3 2.32 3 3 C2.34 3 1.68 3 1 3 C1 3.99 1 4.98 1 6 C-0.32 6 -1.64 6 -3 6 C-3.33 4.68 -3.66 3.36 -4 2 C-3.01 2 -2.02 2 -1 2 C-0.67 1.34 -0.34 0.68 0 0 Z " fill="#4E3D34" transform="translate(134,292)"/>
<path d="M0 0 C4.31392226 0.4793247 6.16569547 1.7457985 9 5 C8.67 5.99 8.34 6.98 8 8 C6.66372225 6.85760183 5.33104612 5.71098945 4 4.5625 C3.2575 3.92441406 2.515 3.28632813 1.75 2.62890625 C1.1725 2.09136719 0.595 1.55382812 0 1 C0 0.67 0 0.34 0 0 Z " fill="#D9591C" transform="translate(124,282)"/>
<path d="M0 0 C3.34998521 1.11666174 3.79340222 1.74694925 5.6875 4.5625 C6.12449219 5.20316406 6.56148438 5.84382813 7.01171875 6.50390625 C7.33785156 6.99761719 7.66398437 7.49132812 8 8 C7.67 8.66 7.34 9.32 7 10 C3.60582235 6.87378374 1.3937282 4.43458973 0 0 Z " fill="#E74D17" transform="translate(110,262)"/>
<path d="M0 0 C0.33 1.32 0.66 2.64 1 4 C-0.32 4.99 -1.64 5.98 -3 7 C-3.66 6.01 -4.32 5.02 -5 4 C-4.67 3.01 -4.34 2.02 -4 1 C-3.34 1 -2.68 1 -2 1 C-1.34 0.67 -0.68 0.34 0 0 Z " fill="#483F36" transform="translate(157,226)"/>
<path d="M0 0 C0.66 0.33 1.32 0.66 2 1 C1.67 1.66 1.34 2.32 1 3 C2.32 3 3.64 3 5 3 C5 3.66 5 4.32 5 5 C2.36 4.67 -0.28 4.34 -3 4 C-2.01 2.68 -1.02 1.36 0 0 Z " fill="#593B27" transform="translate(163,155)"/>
<path d="M0 0 C4.875 4.75 4.875 4.75 6 7 C5.01 7 4.02 7 3 7 C3 6.34 3 5.68 3 5 C2.01 5 1.02 5 0 5 C0 3.35 0 1.7 0 0 Z " fill="#D1611B" transform="translate(153,234)"/>
<path d="M0 0 C1.52519276 0.08937803 3.04681929 0.24537146 4.5625 0.4375 C5.80193359 0.59025391 5.80193359 0.59025391 7.06640625 0.74609375 C7.70449219 0.82988281 8.34257812 0.91367188 9 1 C6.33788628 2.37579827 3.93703384 3.37063561 1 4 C1 3.34 1 2.68 1 2 C0.34 1.67 -0.32 1.34 -1 1 C-0.67 0.67 -0.34 0.34 0 0 Z " fill="#4A3E37" transform="translate(141,98)"/>
<path d="M0 0 C1.125 1.75 1.125 1.75 2 4 C1.3125 6.1875 1.3125 6.1875 0 8 C-0.99 8.33 -1.98 8.66 -3 9 C-2.67 7.68 -2.34 6.36 -2 5 C-1.67 5 -1.34 5 -1 5 C-0.67 3.35 -0.34 1.7 0 0 Z " fill="#493E34" transform="translate(103,248)"/>
<path d="M0 0 C0.6875 1.75 0.6875 1.75 1 4 C-0.3125 6.25 -0.3125 6.25 -2 8 C-2.66 8 -3.32 8 -4 8 C-3.34 6.02 -2.68 4.04 -2 2 C-1.34 2 -0.68 2 0 2 C0 1.34 0 0.68 0 0 Z " fill="#D25220" transform="translate(115,128)"/>
</svg>
